<svg width="140" height="45" viewBox="0 0 140 45" fill="none" xmlns="http://www.w3.org/2000/svg">
<g clip-path="url(#clip0_1_2)">
<path d="M3.8995 45V-2.04H15.8035V45H3.8995ZM36.3505 46.152C26.1745 46.152 19.3265 39.88 19.3265 30.216V10.44H31.2305V29.704C31.2305 33.352 33.2145 35.464 36.3505 35.464C39.5505 35.464 41.4705 33.288 41.4705 29.704V10.44H53.3745V30.216C53.3745 39.88 46.5905 46.152 36.3505 46.152ZM78.0195 9.48C85.9555 9.48 91.0755 15.24 91.0755 24.2V45H79.1715V25.608C79.1715 21.64 77.7635 19.592 74.6275 19.592C71.0435 19.592 68.8035 22.152 68.8035 26.568V45H56.8995V-2.04H68.8035V12.744C71.3635 10.696 74.5635 9.48 78.0195 9.48ZM107.962 46.152C98.5535 46.152 92.8575 41.16 92.7295 33.672H104.186C104.186 36.232 105.978 37.384 108.218 37.384C109.946 37.384 111.61 36.488 111.61 34.696C111.61 32.712 108.986 32.136 105.658 31.624C100.282 30.728 93.1775 29.128 93.1775 20.744C93.1775 13.832 99.1295 9.352 107.962 9.352C116.73 9.352 122.49 14.024 122.618 21H111.418C111.418 18.824 109.946 17.8 107.833 17.8C105.914 17.8 104.634 18.76 104.634 20.36C104.634 22.28 107.258 22.792 110.522 23.368C116.026 24.328 123.257 25.48 123.257 34.184C123.257 41.416 117.178 46.152 107.962 46.152ZM124.889 45V33.992H136.473V45H124.889Z" fill="#4945FF"/>
</g>
<defs>
<clipPath id="clip0_1_2">
<rect width="140" height="45" fill="white"/>
</clipPath>
</defs>
</svg>
